<?xml version="1.0" encoding="UTF-8"?>
<svg xmlns="http://www.w3.org/2000/svg" viewBox="0 0 440 345" width="440" height="345">
<title>ESP32-C3 IR Blaster - Layout Tweaks</title>
<rect width="100%" height="100%" fill="white"/>
<text x="45" y="284" font-size="9" font-family="sans-serif" fill="#999" text-anchor="end">1</text>
<text x="240" y="284" font-size="9" font-family="sans-serif" fill="#999" text-anchor="start">1</text>
<text x="45" y="269" font-size="9" font-family="sans-serif" fill="#999" text-anchor="end">2</text>
<text x="240" y="269" font-size="9" font-family="sans-serif" fill="#999" text-anchor="start">2</text>
<text x="45" y="254" font-size="9" font-family="sans-serif" fill="#999" text-anchor="end">3</text>
<text x="240" y="254" font-size="9" font-family="sans-serif" fill="#999" text-anchor="start">3</text>
<text x="45" y="239" font-size="9" font-family="sans-serif" fill="#999" text-anchor="end">4</text>
<text x="240" y="239" font-size="9" font-family="sans-serif" fill="#999" text-anchor="start">4</text>
<text x="45" y="224" font-size="9" font-family="sans-serif" fill="#999" text-anchor="end">5</text>
<text x="240" y="224" font-size="9" font-family="sans-serif" fill="#999" text-anchor="start">5</text>
<text x="45" y="209" font-size="9" font-family="sans-serif" fill="#999" text-anchor="end">6</text>
<text x="240" y="209" font-size="9" font-family="sans-serif" fill="#999" text-anchor="start">6</text>
<text x="45" y="194" font-size="9" font-family="sans-serif" fill="#999" text-anchor="end">7</text>
<text x="240" y="194" font-size="9" font-family="sans-serif" fill="#999" text-anchor="start">7</text>
<text x="45" y="179" font-size="9" font-family="sans-serif" fill="#999" text-anchor="end">8</text>
<text x="240" y="179" font-size="9" font-family="sans-serif" fill="#999" text-anchor="start">8</text>
<text x="45" y="164" font-size="9" font-family="sans-serif" fill="#999" text-anchor="end">9</text>
<text x="240" y="164" font-size="9" font-family="sans-serif" fill="#999" text-anchor="start">9</text>
<text x="45" y="149" font-size="9" font-family="sans-serif" fill="#999" text-anchor="end">10</text>
<text x="240" y="149" font-size="9" font-family="sans-serif" fill="#999" text-anchor="start">10</text>
<text x="45" y="134" font-size="9" font-family="sans-serif" fill="#999" text-anchor="end">11</text>
<text x="240" y="134" font-size="9" font-family="sans-serif" fill="#999" text-anchor="start">11</text>
<text x="45" y="119" font-size="9" font-family="sans-serif" fill="#999" text-anchor="end">12</text>
<text x="240" y="119" font-size="9" font-family="sans-serif" fill="#999" text-anchor="start">12</text>
<text x="45" y="104" font-size="9" font-family="sans-serif" fill="#999" text-anchor="end">13</text>
<text x="240" y="104" font-size="9" font-family="sans-serif" fill="#999" text-anchor="start">13</text>
<text x="45" y="89" font-size="9" font-family="sans-serif" fill="#999" text-anchor="end">14</text>
<text x="240" y="89" font-size="9" font-family="sans-serif" fill="#999" text-anchor="start">14</text>
<text x="45" y="74" font-size="9" font-family="sans-serif" fill="#999" text-anchor="end">15</text>
<text x="240" y="74" font-size="9" font-family="sans-serif" fill="#999" text-anchor="start">15</text>
<text x="45" y="59" font-size="9" font-family="sans-serif" fill="#999" text-anchor="end">16</text>
<text x="240" y="59" font-size="9" font-family="sans-serif" fill="#999" text-anchor="start">16</text>
<text x="45" y="44" font-size="9" font-family="sans-serif" fill="#999" text-anchor="end">17</text>
<text x="240" y="44" font-size="9" font-family="sans-serif" fill="#999" text-anchor="start">17</text>
<circle cx="60" cy="280" r="3" fill="#333333"/>
<circle cx="75" cy="280" r="3" fill="#333333"/>
<circle cx="90" cy="280" r="3" fill="#333333"/>
<circle cx="105" cy="280" r="3" fill="#333333"/>
<circle cx="120" cy="280" r="3" fill="#333333"/>
<circle cx="165" cy="280" r="3" fill="#333333"/>
<circle cx="180" cy="280" r="3" fill="#333333"/>
<circle cx="195" cy="280" r="3" fill="#333333"/>
<circle cx="210" cy="280" r="3" fill="#333333"/>
<circle cx="225" cy="280" r="3" fill="#333333"/>
<circle cx="60" cy="265" r="3" fill="#333333"/>
<circle cx="75" cy="265" r="3" fill="#333333"/>
<circle cx="90" cy="265" r="3" fill="#333333"/>
<circle cx="105" cy="265" r="3" fill="#333333"/>
<circle cx="120" cy="265" r="3" fill="#333333"/>
<circle cx="165" cy="265" r="3" fill="#333333"/>
<circle cx="180" cy="265" r="3" fill="#333333"/>
<circle cx="195" cy="265" r="3" fill="#333333"/>
<circle cx="210" cy="265" r="3" fill="#333333"/>
<circle cx="225" cy="265" r="3" fill="#333333"/>
<circle cx="60" cy="250" r="3" fill="#333333"/>
<circle cx="75" cy="250" r="3" fill="#333333"/>
<circle cx="90" cy="250" r="3" fill="#333333"/>
<circle cx="105" cy="250" r="3" fill="#333333"/>
<circle cx="120" cy="250" r="3" fill="#333333"/>
<circle cx="165" cy="250" r="3" fill="#333333"/>
<circle cx="180" cy="250" r="3" fill="#333333"/>
<circle cx="195" cy="250" r="3" fill="#333333"/>
<circle cx="210" cy="250" r="3" fill="#333333"/>
<circle cx="225" cy="250" r="3" fill="#333333"/>
<circle cx="60" cy="235" r="3" fill="#333333"/>
<circle cx="75" cy="235" r="3" fill="#333333"/>
<circle cx="90" cy="235" r="3" fill="#333333"/>
<circle cx="105" cy="235" r="3" fill="#333333"/>
<circle cx="120" cy="235" r="3" fill="#333333"/>
<circle cx="165" cy="235" r="3" fill="#333333"/>
<circle cx="180" cy="235" r="3" fill="#333333"/>
<circle cx="195" cy="235" r="3" fill="#333333"/>
<circle cx="210" cy="235" r="3" fill="#333333"/>
<circle cx="225" cy="235" r="3" fill="#333333"/>
<circle cx="60" cy="220" r="3" fill="#333333"/>
<circle cx="75" cy="220" r="3" fill="#333333"/>
<circle cx="90" cy="220" r="3" fill="#333333"/>
<circle cx="105" cy="220" r="3" fill="#333333"/>
<circle cx="120" cy="220" r="3" fill="#333333"/>
<circle cx="165" cy="220" r="3" fill="#333333"/>
<circle cx="180" cy="220" r="3" fill="#333333"/>
<circle cx="195" cy="220" r="3" fill="#333333"/>
<circle cx="210" cy="220" r="3" fill="#333333"/>
<circle cx="225" cy="220" r="3" fill="#333333"/>
<circle cx="60" cy="205" r="3" fill="#333333"/>
<circle cx="75" cy="205" r="3" fill="#333333"/>
<circle cx="90" cy="205" r="3" fill="#333333"/>
<circle cx="105" cy="205" r="3" fill="#333333"/>
<circle cx="120" cy="205" r="3" fill="#333333"/>
<circle cx="165" cy="205" r="3" fill="#333333"/>
<circle cx="180" cy="205" r="3" fill="#333333"/>
<circle cx="195" cy="205" r="3" fill="#333333"/>
<circle cx="210" cy="205" r="3" fill="#333333"/>
<circle cx="225" cy="205" r="3" fill="#333333"/>
<circle cx="60" cy="190" r="3" fill="#333333"/>
<circle cx="75" cy="190" r="3" fill="#333333"/>
<circle cx="90" cy="190" r="3" fill="#333333"/>
<circle cx="105" cy="190" r="3" fill="#333333"/>
<circle cx="120" cy="190" r="3" fill="#333333"/>
<circle cx="165" cy="190" r="3" fill="#333333"/>
<circle cx="180" cy="190" r="3" fill="#333333"/>
<circle cx="195" cy="190" r="3" fill="#333333"/>
<circle cx="210" cy="190" r="3" fill="#333333"/>
<circle cx="225" cy="190" r="3" fill="#333333"/>
<circle cx="60" cy="175" r="3" fill="#333333"/>
<circle cx="75" cy="175" r="3" fill="#333333"/>
<circle cx="90" cy="175" r="3" fill="#333333"/>
<circle cx="105" cy="175" r="3" fill="#333333"/>
<circle cx="120" cy="175" r="3" fill="#333333"/>
<circle cx="165" cy="175" r="3" fill="#333333"/>
<circle cx="180" cy="175" r="3" fill="#333333"/>
<circle cx="195" cy="175" r="3" fill="#333333"/>
<circle cx="210" cy="175" r="3" fill="#333333"/>
<circle cx="225" cy="175" r="3" fill="#333333"/>
<circle cx="60" cy="160" r="3" fill="#333333"/>
<circle cx="75" cy="160" r="3" fill="#333333"/>
<circle cx="90" cy="160" r="3" fill="#333333"/>
<circle cx="105" cy="160" r="3" fill="#333333"/>
<circle cx="120" cy="160" r="3" fill="#333333"/>
<circle cx="165" cy="160" r="3" fill="#333333"/>
<circle cx="180" cy="160" r="3" fill="#333333"/>
<circle cx="195" cy="160" r="3" fill="#333333"/>
<circle cx="210" cy="160" r="3" fill="#333333"/>
<circle cx="225" cy="160" r="3" fill="#333333"/>
<circle cx="60" cy="145" r="3" fill="#333333"/>
<circle cx="75" cy="145" r="3" fill="#333333"/>
<circle cx="90" cy="145" r="3" fill="#333333"/>
<circle cx="105" cy="145" r="3" fill="#333333"/>
<circle cx="120" cy="145" r="3" fill="#333333"/>
<circle cx="165" cy="145" r="3" fill="#333333"/>
<circle cx="180" cy="145" r="3" fill="#333333"/>
<circle cx="195" cy="145" r="3" fill="#333333"/>
<circle cx="210" cy="145" r="3" fill="#333333"/>
<circle cx="225" cy="145" r="3" fill="#333333"/>
<circle cx="60" cy="130" r="3" fill="#333333"/>
<circle cx="75" cy="130" r="3" fill="#333333"/>
<circle cx="90" cy="130" r="3" fill="#333333"/>
<circle cx="105" cy="130" r="3" fill="#333333"/>
<circle cx="120" cy="130" r="3" fill="#333333"/>
<circle cx="165" cy="130" r="3" fill="#333333"/>
<circle cx="180" cy="130" r="3" fill="#333333"/>
<circle cx="195" cy="130" r="3" fill="#333333"/>
<circle cx="210" cy="130" r="3" fill="#333333"/>
<circle cx="225" cy="130" r="3" fill="#333333"/>
<circle cx="60" cy="115" r="3" fill="#333333"/>
<circle cx="75" cy="115" r="3" fill="#333333"/>
<circle cx="90" cy="115" r="3" fill="#333333"/>
<circle cx="105" cy="115" r="3" fill="#333333"/>
<circle cx="120" cy="115" r="3" fill="#333333"/>
<circle cx="165" cy="115" r="3" fill="#333333"/>
<circle cx="180" cy="115" r="3" fill="#333333"/>
<circle cx="195" cy="115" r="3" fill="#333333"/>
<circle cx="210" cy="115" r="3" fill="#333333"/>
<circle cx="225" cy="115" r="3" fill="#333333"/>
<circle cx="60" cy="100" r="3" fill="#333333"/>
<circle cx="75" cy="100" r="3" fill="#333333"/>
<circle cx="90" cy="100" r="3" fill="#333333"/>
<circle cx="105" cy="100" r="3" fill="#333333"/>
<circle cx="120" cy="100" r="3" fill="#333333"/>
<circle cx="165" cy="100" r="3" fill="#333333"/>
<circle cx="180" cy="100" r="3" fill="#333333"/>
<circle cx="195" cy="100" r="3" fill="#333333"/>
<circle cx="210" cy="100" r="3" fill="#333333"/>
<circle cx="225" cy="100" r="3" fill="#333333"/>
<circle cx="60" cy="85" r="3" fill="#333333"/>
<circle cx="75" cy="85" r="3" fill="#333333"/>
<circle cx="90" cy="85" r="3" fill="#333333"/>
<circle cx="105" cy="85" r="3" fill="#333333"/>
<circle cx="120" cy="85" r="3" fill="#333333"/>
<circle cx="165" cy="85" r="3" fill="#333333"/>
<circle cx="180" cy="85" r="3" fill="#333333"/>
<circle cx="195" cy="85" r="3" fill="#333333"/>
<circle cx="210" cy="85" r="3" fill="#333333"/>
<circle cx="225" cy="85" r="3" fill="#333333"/>
<circle cx="60" cy="70" r="3" fill="#333333"/>
<circle cx="75" cy="70" r="3" fill="#333333"/>
<circle cx="90" cy="70" r="3" fill="#333333"/>
<circle cx="105" cy="70" r="3" fill="#333333"/>
<circle cx="120" cy="70" r="3" fill="#333333"/>
<circle cx="165" cy="70" r="3" fill="#333333"/>
<circle cx="180" cy="70" r="3" fill="#333333"/>
<circle cx="195" cy="70" r="3" fill="#333333"/>
<circle cx="210" cy="70" r="3" fill="#333333"/>
<circle cx="225" cy="70" r="3" fill="#333333"/>
<circle cx="60" cy="55" r="3" fill="#333333"/>
<circle cx="75" cy="55" r="3" fill="#333333"/>
<circle cx="90" cy="55" r="3" fill="#333333"/>
<circle cx="105" cy="55" r="3" fill="#333333"/>
<circle cx="120" cy="55" r="3" fill="#333333"/>
<circle cx="165" cy="55" r="3" fill="#333333"/>
<circle cx="180" cy="55" r="3" fill="#333333"/>
<circle cx="195" cy="55" r="3" fill="#333333"/>
<circle cx="210" cy="55" r="3" fill="#333333"/>
<circle cx="225" cy="55" r="3" fill="#333333"/>
<circle cx="60" cy="40" r="3" fill="#333333"/>
<circle cx="75" cy="40" r="3" fill="#333333"/>
<circle cx="90" cy="40" r="3" fill="#333333"/>
<circle cx="105" cy="40" r="3" fill="#333333"/>
<circle cx="120" cy="40" r="3" fill="#333333"/>
<circle cx="165" cy="40" r="3" fill="#333333"/>
<circle cx="180" cy="40" r="3" fill="#333333"/>
<circle cx="195" cy="40" r="3" fill="#333333"/>
<circle cx="210" cy="40" r="3" fill="#333333"/>
<circle cx="225" cy="40" r="3" fill="#333333"/>
<rect x="97" y="155" width="106" height="135" rx="5" fill="#222" stroke="#666" stroke-width="2"/>
<text x="150.0" y="275" text-anchor="middle" fill="#aaa" font-size="10" font-family="sans-serif">USB</text>
<text x="150.0" y="185" text-anchor="middle" fill="white" font-size="12" font-family="sans-serif">ESP32-C3</text>
<text x="102" y="284" fill="white" font-size="9" font-family="sans-serif" font-weight="bold" text-anchor="start">5V</text>
<text x="102" y="269" fill="white" font-size="9" font-family="sans-serif" font-weight="bold" text-anchor="start">GND</text>
<text x="102" y="254" fill="white" font-size="9" font-family="sans-serif" font-weight="bold" text-anchor="start">3V3</text>
<text x="102" y="239" fill="white" font-size="9" font-family="sans-serif" font-weight="bold" text-anchor="start">4</text>
<text x="102" y="224" fill="white" font-size="9" font-family="sans-serif" font-weight="bold" text-anchor="start">3</text>
<text x="102" y="209" fill="white" font-size="9" font-family="sans-serif" font-weight="bold" text-anchor="start">2</text>
<text x="102" y="194" fill="white" font-size="9" font-family="sans-serif" font-weight="bold" text-anchor="start">1</text>
<text x="102" y="179" fill="white" font-size="9" font-family="sans-serif" font-weight="bold" text-anchor="start">0</text>
<text x="198" y="284" fill="white" font-size="9" font-family="sans-serif" font-weight="bold" text-anchor="end">5</text>
<text x="198" y="269" fill="white" font-size="9" font-family="sans-serif" font-weight="bold" text-anchor="end">6</text>
<text x="198" y="254" fill="white" font-size="9" font-family="sans-serif" font-weight="bold" text-anchor="end">7</text>
<text x="198" y="239" fill="white" font-size="9" font-family="sans-serif" font-weight="bold" text-anchor="end">8</text>
<text x="198" y="224" fill="white" font-size="9" font-family="sans-serif" font-weight="bold" text-anchor="end">9</text>
<text x="198" y="209" fill="white" font-size="9" font-family="sans-serif" font-weight="bold" text-anchor="end">10</text>
<text x="198" y="194" fill="white" font-size="9" font-family="sans-serif" font-weight="bold" text-anchor="end">20</text>
<text x="198" y="179" fill="white" font-size="9" font-family="sans-serif" font-weight="bold" text-anchor="end">21</text>
<path d="M 90,265 L 180,115" stroke="#212121" stroke-width="4" fill="none" stroke-linecap="round" opacity="0.8"/>
<circle cx="90" cy="265" r="4" fill="#212121"/>
<circle cx="180" cy="115" r="4" fill="#212121"/>
<path d="M 90,250 L 180,100" stroke="#d32f2f" stroke-width="4" fill="none" stroke-linecap="round" opacity="0.8"/>
<circle cx="90" cy="250" r="4" fill="#d32f2f"/>
<circle cx="180" cy="100" r="4" fill="#d32f2f"/>
<line x1="90" y1="235" x2="90" y2="100" stroke="#999" stroke-width="2"/>
<rect x="85.0" y="155.5" width="10" height="24" fill="#e0c090" stroke="#333"/>
<rect x="85.0" y="159.5" width="10" height="3" fill="red"/>
<rect x="85.0" y="164.5" width="10" height="3" fill="red"/>
<rect x="85.0" y="169.5" width="10" height="3" fill="brown"/>
<circle cx="90" cy="235" r="3" fill="#888"/>
<circle cx="90" cy="100" r="3" fill="#888"/>
<path d="M 210,205 L 180,85" stroke="#388e3c" stroke-width="4" fill="none" stroke-linecap="round" opacity="0.8"/>
<circle cx="210" cy="205" r="4" fill="#388e3c"/>
<circle cx="180" cy="85" r="4" fill="#388e3c"/>
<path d="M 120,115 Q 142.5 100 165,115" stroke="#212121" stroke-width="4" fill="none" stroke-linecap="round" opacity="0.8"/>
<circle cx="120" cy="115" r="4" fill="#212121"/>
<circle cx="165" cy="115" r="4" fill="#212121"/>
<rect x="213" y="75" width="24" height="50" fill="#444" rx="2"/>
<text x="229" y="100" fill="white" font-size="9" text-anchor="middle" transform="rotate(-90 229,100)">KY-022</text>
<text x="217" y="118" fill="#ddd" font-size="8" font-family="monospace">-</text>
<text x="217" y="103" fill="#ddd" font-size="8" font-family="monospace">+</text>
<text x="217" y="88" fill="#ddd" font-size="8" font-family="monospace">S</text>
<line x1="60" y1="100" x2="75" y2="115" stroke="#444" stroke-width="2"/>
<line x1="60" y1="100" x2="75" y2="100" stroke="#444" stroke-width="2"/>
<line x1="60" y1="100" x2="75" y2="85" stroke="#444" stroke-width="2"/>
<path d="M 60,93 A 7 7 0 1 0 60,107 Z" fill="white" stroke="black" stroke-width="1.5"/>
<text x="50" y="120" font-size="9" fill="#333" font-weight="bold">2N2222</text>
<line x1="75" y1="40" x2="30" y2="50" stroke="#444" stroke-width="1.5"/>
<line x1="90" y1="85" x2="30" y2="50" stroke="#444" stroke-width="1.5"/>
<circle cx="30" cy="50" r="9" fill="#b0e0e6" stroke="#666"/>
<text x="15" y="70" font-size="9" fill="#333" font-weight="bold">IR LED</text>
<line x1="195" y1="100" x2="90" y2="40" stroke="#999" stroke-width="2"/>
<rect x="130.5" y="65.0" width="24" height="10" fill="#e0c090" stroke="#333"/>
<rect x="134.5" y="65.0" width="3" height="10" fill="brown"/>
<rect x="139.5" y="65.0" width="3" height="10" fill="black"/>
<rect x="144.5" y="65.0" width="3" height="10" fill="red"/>
<circle cx="195" cy="100" r="3" fill="#888"/>
<circle cx="90" cy="40" r="3" fill="#888"/>
<text x="220" y="380" text-anchor="middle" font-size="10" fill="#666">Layout: LED Left. Transistor White/Below. KY Labels Spaced.</text>
</svg>